<svg width="40" height="39" viewBox="0 0 40 39" fill="none" xmlns="http://www.w3.org/2000/svg">
<path fill-rule="evenodd" clip-rule="evenodd" d="M0 17.3333C0 9.16284 -2.58458e-07 5.0765 2.54101 2.53933C5.07986 -2.58287e-07 9.16889 0 17.3448 0H21.681C29.8569 0 33.9459 -2.58287e-07 36.4848 2.53933C39.0258 5.0765 39.0258 9.16284 39.0258 17.3333V21.6667C39.0258 29.8372 39.0258 33.9235 36.4848 36.4607C33.9459 39 29.8569 39 21.681 39H17.3448C9.16889 39 5.07986 39 2.54101 36.4607C-2.58458e-07 33.9235 0 29.8372 0 21.6667V17.3333ZM32.5215 9.75C32.5215 10.612 32.1789 11.4386 31.569 12.0481C30.9591 12.6576 30.1319 13 29.2693 13C28.4068 13 27.5796 12.6576 26.9697 12.0481C26.3598 11.4386 26.0172 10.612 26.0172 9.75C26.0172 8.88805 26.3598 8.0614 26.9697 7.4519C27.5796 6.84241 28.4068 6.5 29.2693 6.5C30.1319 6.5 30.9591 6.84241 31.569 7.4519C32.1789 8.0614 32.5215 8.88805 32.5215 9.75ZM23.8491 21.6667C23.8491 22.8159 23.3923 23.9181 22.5791 24.7308C21.7659 25.5435 20.6629 26 19.5129 26C18.3629 26 17.2599 25.5435 16.4467 24.7308C15.6335 23.9181 15.1767 22.8159 15.1767 21.6667C15.1767 20.5174 15.6335 19.4152 16.4467 18.6025C17.2599 17.7899 18.3629 17.3333 19.5129 17.3333C20.6629 17.3333 21.7659 17.7899 22.5791 18.6025C23.3923 19.4152 23.8491 20.5174 23.8491 21.6667ZM28.1853 21.6667C28.1853 23.9652 27.2716 26.1696 25.6452 27.7949C24.0188 29.4202 21.813 30.3333 19.5129 30.3333C17.2128 30.3333 15.007 29.4202 13.3806 27.7949C11.7542 26.1696 10.8405 23.9652 10.8405 21.6667C10.8405 19.3681 11.7542 17.1637 13.3806 15.5384C15.007 13.9131 17.2128 13 19.5129 13C21.813 13 24.0188 13.9131 25.6452 15.5384C27.2716 17.1637 28.1853 19.3681 28.1853 21.6667Z" fill="white"/>
</svg>
