<svg width="38" height="38" viewBox="0 0 38 38" fill="none" xmlns="http://www.w3.org/2000/svg">
<path fill-rule="evenodd" clip-rule="evenodd" d="M37.5 5.29509C37.5 2.3707 35.1293 0 32.2049 0H5.29509C2.3707 0 0 2.3707 0 5.29509V32.2049C0 35.1293 2.3707 37.5 5.29509 37.5H32.2049C35.1293 37.5 37.5 35.1293 37.5 32.2049V5.29509ZM31.0668 16.3554C28.6474 16.3825 26.3929 15.651 24.4135 14.2964V23.8061C24.4135 28.0326 21.5204 31.6633 17.4293 32.6115C11.848 33.8848 7.12317 29.848 6.52725 25.0254C5.90409 20.2027 8.97984 15.9762 13.6941 15.0279C14.6152 14.8383 16.0007 14.8383 16.7155 15.0008V20.0943C16.4956 20.0403 16.2896 19.986 16.0729 19.959C14.2305 19.6338 12.4462 20.555 11.7146 22.2347C10.9831 23.9146 11.4727 25.8652 12.9629 27.0033C14.2091 27.9786 15.5918 28.114 17.0007 27.4637C18.4096 26.8407 19.1668 25.7028 19.3292 24.1585C19.3563 23.9418 19.3548 23.6979 19.3548 23.454V5.16591C19.3548 4.65117 19.3589 4.67362 19.8736 4.67362H23.9105C24.2086 4.67362 24.3171 4.71652 24.3441 5.06892C24.5607 8.21175 26.9469 10.8883 30.0084 11.2948C30.3336 11.3489 30.6819 11.3704 31.0668 11.3974V16.3554Z" fill="white"/>
</svg>
